<svg width="16" height="16" viewBox="0 0 16 16" fill="none" xmlns="http://www.w3.org/2000/svg">
<mask id="mask0_1_387" style="mask-type:alpha" maskUnits="userSpaceOnUse" x="0" y="0" width="16" height="16">
<rect width="16" height="16" fill="#D9D9D9"/>
</mask>
<g mask="url(#mask0_1_387)">
<path d="M8.00002 10.6667C8.83335 10.6667 9.54169 10.375 10.125 9.79169C10.7084 9.20835 11 8.50002 11 7.66669C11 6.83335 10.7084 6.12502 10.125 5.54169C9.54169 4.95835 8.83335 4.66669 8.00002 4.66669C7.16669 4.66669 6.45835 4.95835 5.87502 5.54169C5.29169 6.12502 5.00002 6.83335 5.00002 7.66669C5.00002 8.50002 5.29169 9.20835 5.87502 9.79169C6.45835 10.375 7.16669 10.6667 8.00002 10.6667ZM8.00002 9.46669C7.50002 9.46669 7.07502 9.29169 6.72502 8.94169C6.37502 8.59169 6.20002 8.16669 6.20002 7.66669C6.20002 7.16669 6.37502 6.74169 6.72502 6.39169C7.07502 6.04169 7.50002 5.86669 8.00002 5.86669C8.50002 5.86669 8.92502 6.04169 9.27502 6.39169C9.62502 6.74169 9.80002 7.16669 9.80002 7.66669C9.80002 8.16669 9.62502 8.59169 9.27502 8.94169C8.92502 9.29169 8.50002 9.46669 8.00002 9.46669ZM8.00002 12.6667C6.3778 12.6667 4.90002 12.2139 3.56669 11.3084C2.23335 10.4028 1.26669 9.18891 0.666687 7.66669C1.26669 6.14446 2.23335 4.93058 3.56669 4.02502C4.90002 3.11946 6.3778 2.66669 8.00002 2.66669C9.62224 2.66669 11.1 3.11946 12.4334 4.02502C13.7667 4.93058 14.7334 6.14446 15.3334 7.66669C14.7334 9.18891 13.7667 10.4028 12.4334 11.3084C11.1 12.2139 9.62224 12.6667 8.00002 12.6667ZM8.00002 11.3334C9.25558 11.3334 10.4084 11.0028 11.4584 10.3417C12.5084 9.68058 13.3111 8.78891 13.8667 7.66669C13.3111 6.54446 12.5084 5.6528 11.4584 4.99169C10.4084 4.33058 9.25558 4.00002 8.00002 4.00002C6.74446 4.00002 5.59169 4.33058 4.54169 4.99169C3.49169 5.6528 2.68891 6.54446 2.13335 7.66669C2.68891 8.78891 3.49169 9.68058 4.54169 10.3417C5.59169 11.0028 6.74446 11.3334 8.00002 11.3334Z" fill="#7A7A7A"/>
</g>
</svg>
