<svg width="101" height="13" viewBox="0 0 101 13" fill="none" xmlns="http://www.w3.org/2000/svg">
<path d="M88.2219 12.384L92.3019 6.192L88.3899 0.240002H91.6779L94.1259 4.104H94.6059L97.0779 0.240002H100.342L96.4539 6.192L100.534 12.384H97.2459L94.6059 8.28H94.1259L91.5099 12.384H88.2219Z" fill="#121212"/>
<path d="M72.8704 12.384L76.9504 6.192L73.0384 0.240002H76.3264L78.7744 4.104H79.2544L81.7264 0.240002H84.9904L81.1024 6.192L85.1824 12.384H81.8944L79.2544 8.28H78.7744L76.1584 12.384H72.8704Z" fill="#121212"/>
<path d="M63.4727 12.624C62.3207 12.624 61.2727 12.352 60.3287 11.808C59.3847 11.264 58.6407 10.512 58.0967 9.552C57.5687 8.592 57.3047 7.512 57.3047 6.312C57.3047 5.112 57.5687 4.032 58.0967 3.072C58.6407 2.112 59.3847 1.36 60.3287 0.816C61.2727 0.272 62.3207 0 63.4727 0C64.5767 0 65.5847 0.264 66.4967 0.792001C67.4087 1.32 68.1207 2.048 68.6327 2.976C69.1607 3.888 69.4247 4.904 69.4247 6.024C69.4247 6.296 69.4087 6.552 69.3767 6.792C69.3607 7.016 69.3367 7.176 69.3047 7.272H60.2087C60.2727 7.832 60.4567 8.336 60.7607 8.784C61.0647 9.232 61.4487 9.576 61.9127 9.816C62.3927 10.056 62.9127 10.176 63.4727 10.176C64.0807 10.176 64.6087 10.048 65.0567 9.792C65.5207 9.536 65.8727 9.224 66.1127 8.856H69.0887C68.8807 9.48 68.5287 10.08 68.0327 10.656C67.5527 11.216 66.9287 11.688 66.1607 12.072C65.3927 12.44 64.4967 12.624 63.4727 12.624ZM66.5447 5.304C66.4807 4.76 66.3127 4.272 66.0407 3.84C65.7687 3.392 65.4087 3.04 64.9607 2.784C64.5287 2.528 64.0327 2.4 63.4727 2.4C62.8807 2.4 62.3527 2.528 61.8887 2.784C61.4247 3.04 61.0487 3.392 60.7607 3.84C60.4727 4.272 60.2887 4.76 60.2087 5.304H66.5447Z" fill="#121212"/>
<path d="M34.3277 12.384V0.24H36.8477L37.0877 1.416H37.2077C37.4637 1.048 37.8637 0.72 38.4077 0.432C38.9517 0.144 39.5437 0 40.1837 0C40.9997 0 41.7037 0.192 42.2957 0.576C42.9037 0.944 43.3277 1.36 43.5677 1.824H43.6877C44.0077 1.344 44.5037 0.92 45.1757 0.552C45.8477 0.184 46.6157 0 47.4797 0C48.3277 0 49.0877 0.208 49.7597 0.624001C50.4477 1.04 50.9837 1.616 51.3677 2.352C51.7517 3.088 51.9437 3.92 51.9437 4.848V12.384H49.0397V5.184C49.0397 4.688 48.9517 4.256 48.7757 3.888C48.5997 3.52 48.3517 3.24 48.0317 3.048C47.7117 2.856 47.3357 2.76 46.9037 2.76C46.4877 2.76 46.1037 2.864 45.7517 3.072C45.3997 3.28 45.1197 3.568 44.9117 3.936C44.7037 4.304 44.5997 4.72 44.5997 5.184V12.384H41.6717V5.184C41.6717 4.688 41.5837 4.256 41.4077 3.888C41.2317 3.52 40.9837 3.24 40.6637 3.048C40.3437 2.856 39.9757 2.76 39.5597 2.76C39.1277 2.76 38.7357 2.864 38.3837 3.072C38.0317 3.28 37.7517 3.568 37.5437 3.936C37.3357 4.304 37.2317 4.72 37.2317 5.184V12.384H34.3277Z" fill="#121212"/>
<path d="M22.7377 12.624C21.5857 12.624 20.5378 12.352 19.5938 11.808C18.6658 11.264 17.9297 10.512 17.3857 9.552C16.8577 8.592 16.5938 7.512 16.5938 6.312C16.5938 5.112 16.8577 4.032 17.3857 3.072C17.9297 2.112 18.6658 1.36 19.5938 0.816C20.5378 0.272 21.5857 0 22.7377 0C23.9057 0 24.9538 0.272 25.8818 0.816C26.8258 1.36 27.5618 2.112 28.0898 3.072C28.6337 4.032 28.9058 5.112 28.9058 6.312C28.9058 7.512 28.6337 8.592 28.0898 9.552C27.5618 10.512 26.8258 11.264 25.8818 11.808C24.9538 12.352 23.9057 12.624 22.7377 12.624ZM22.7377 9.912C23.3297 9.912 23.8738 9.768 24.3698 9.48C24.8658 9.176 25.2577 8.752 25.5457 8.208C25.8497 7.648 26.0018 7.016 26.0018 6.312C26.0018 5.608 25.8497 4.984 25.5457 4.44C25.2577 3.88 24.8658 3.456 24.3698 3.168C23.8738 2.864 23.3297 2.712 22.7377 2.712C22.1457 2.712 21.6017 2.864 21.1057 3.168C20.6097 3.456 20.2178 3.88 19.9298 4.44C19.6418 4.984 19.4977 5.608 19.4977 6.312C19.4977 7.016 19.6418 7.648 19.9298 8.208C20.2178 8.752 20.6097 9.176 21.1057 9.48C21.6017 9.768 22.1457 9.912 22.7377 9.912Z" fill="#121212"/>
<path d="M6.168 12.624C5.016 12.624 3.968 12.352 3.024 11.808C2.08 11.264 1.336 10.512 0.792 9.552C0.264 8.592 0 7.512 0 6.312C0 5.112 0.264 4.032 0.792 3.072C1.336 2.112 2.08 1.36 3.024 0.816C3.968 0.272 5.016 0 6.168 0C7.24 0 8.176 0.216001 8.976 0.648001C9.792 1.08 10.448 1.648 10.944 2.352C11.44 3.056 11.768 3.824 11.928 4.656H9C8.808 4.08 8.472 3.616 7.992 3.264C7.528 2.896 6.92 2.712 6.168 2.712C5.576 2.712 5.032 2.864 4.536 3.168C4.04 3.456 3.648 3.88 3.36 4.44C3.072 4.984 2.928 5.608 2.928 6.312C2.928 7.016 3.072 7.648 3.36 8.208C3.648 8.752 4.04 9.176 4.536 9.48C5.032 9.784 5.576 9.936 6.168 9.936C6.92 9.936 7.528 9.752 7.992 9.384C8.472 9 8.808 8.504 9 7.896H11.928C11.768 8.744 11.44 9.528 10.944 10.248C10.448 10.968 9.792 11.544 8.976 11.976C8.176 12.408 7.24 12.624 6.168 12.624Z" fill="#121212"/>
</svg>
