<svg width="16" height="16" viewBox="0 0 16 16" fill="none" xmlns="http://www.w3.org/2000/svg">
<path d="M7.17102 1.84348C7.24725 1.69034 7.36515 1.5614 7.51139 1.47125C7.65764 1.38109 7.82639 1.33331 7.99858 1.33331C8.17077 1.33331 8.33952 1.38109 8.48577 1.47125C8.63201 1.5614 8.74991 1.69034 8.82614 1.84348L10.3859 4.97832L13.8736 5.48079C14.0441 5.50518 14.2043 5.57641 14.3361 5.68643C14.4679 5.79645 14.566 5.94086 14.6194 6.10332C14.6727 6.26578 14.6792 6.43981 14.638 6.60572C14.5968 6.77163 14.5096 6.92279 14.3863 7.04211L11.8616 9.48325L12.4574 12.9283C12.4863 13.0966 12.4672 13.2696 12.4023 13.4278C12.3373 13.5859 12.2291 13.7228 12.0897 13.8231C11.9504 13.9234 11.7856 13.9831 11.6139 13.9954C11.4422 14.0076 11.2705 13.972 11.1181 13.8926L7.99858 12.2672L4.87907 13.8946C4.72653 13.9743 4.55455 14.0099 4.38262 13.9976C4.21069 13.9853 4.04567 13.9254 3.90627 13.8248C3.76687 13.7243 3.65866 13.587 3.59388 13.4285C3.52911 13.2701 3.51037 13.0968 3.53979 12.9283L4.13457 9.48325L1.61189 7.04312C1.4886 6.92387 1.40141 6.77279 1.36017 6.60696C1.31893 6.44113 1.32529 6.26716 1.37853 6.10472C1.43176 5.94229 1.52976 5.79786 1.66143 5.68778C1.79309 5.5777 1.95319 5.50635 2.1236 5.4818L5.61024 4.97934L7.17102 1.84449V1.84348Z" fill="#F5BE00"/>
</svg>
